HIERARCHY
ROOT Hips
{
    OFFSET 0.000000 0.000000 0.000000
    CHANNELS 6 Xposition Yposition Zposition Zrotation Xrotation Yrotation
    JOINT Spine
    {
        OFFSET -0.000000 7.236184 0.000000
        CHANNELS 3 Zrotation Xrotation Yrotation
        JOINT Spine1
        {
            OFFSET -0.000000 20.420147 0.000000
            CHANNELS 3 Zrotation Xrotation Yrotation
            JOINT Neck
            {
                OFFSET -0.000000 20.336288 1.848754
                CHANNELS 3 Zrotation Xrotation Yrotation
                JOINT Head
                {
                    OFFSET -0.000000 12.354461 -1.764923
                    CHANNELS 3 Zrotation Xrotation Yrotation
                    End Site
                    {
                        OFFSET -0.000000 22.061537 0.000000
                    }
                }
            }
            JOINT LeftShoulder
            {
                OFFSET 3.573296 18.396038 -0.314103
                CHANNELS 3 Zrotation Xrotation Yrotation
                JOINT LeftArm
                {
                    OFFSET 10.880760 0.000000 0.000000
                    CHANNELS 3 Zrotation Xrotation Yrotation
                    JOINT LeftForeArm
                    {
                        OFFSET 27.185530 0.000000 0.000000
                        CHANNELS 3 Zrotation Xrotation Yrotation
                        JOINT LeftHand
                        {
                            OFFSET 27.825975 0.000000 0.000000
                            CHANNELS 3 Zrotation Xrotation Yrotation
                            End Site
                            {
                                OFFSET 13.236923 0.000000 0.000000
                            }
                        }
                    }
                }
            }
            JOINT RightShoulder
            {
                OFFSET -3.474926 18.396038 -0.314103
                CHANNELS 3 Zrotation Xrotation Yrotation
                JOINT RightArm
                {
                    OFFSET -10.880760 0.000000 0.000000
                    CHANNELS 3 Zrotation Xrotation Yrotation
                    JOINT RightForeArm
                    {
                        OFFSET -27.185530 0.000000 0.000000
                        CHANNELS 3 Zrotation Xrotation Yrotation
                        JOINT RightHand
                        {
                            OFFSET -27.825975 0.000000 0.000000
                            CHANNELS 3 Zrotation Xrotation Yrotation
                            End Site
                            {
                                OFFSET -13.236923 0.000000 0.000000
                            }
                        }
                    }
                }
            }
        }
    }
    JOINT LeftUpLeg
    {
        OFFSET 8.824615 0.000000 0.000000
        CHANNELS 3 Zrotation Xrotation Yrotation
        JOINT LeftLeg
        {
            OFFSET -0.000000 -35.111282 0.000000
            CHANNELS 3 Zrotation Xrotation Yrotation
            JOINT LeftFoot
            {
                OFFSET -0.000000 -42.324711 0.000000
                CHANNELS 3 Zrotation Xrotation Yrotation
                JOINT LeftToeBase
                {
                    OFFSET -0.000000 -5.735999 13.236923
                    CHANNELS 3 Zrotation Xrotation Yrotation
                    End Site
                    {
                        OFFSET -0.000000 0.000000 3.529846
                    }
                }
            }
        }
    }
    JOINT RightUpLeg
    {
        OFFSET -8.824615 0.000000 0.000000
        CHANNELS 3 Zrotation Xrotation Yrotation
        JOINT RightLeg
        {
            OFFSET -0.000000 -35.111282 0.000000
            CHANNELS 3 Zrotation Xrotation Yrotation
            JOINT RightFoot
            {
                OFFSET -0.000000 -42.324711 0.000000
                CHANNELS 3 Zrotation Xrotation Yrotation
                JOINT RightToeBase
                {
                    OFFSET -0.000000 -5.735999 13.236923
                    CHANNELS 3 Zrotation Xrotation Yrotation
                    End Site
                    {
                        OFFSET -0.000000 0.000000 3.529846
                    }
                }
            }
        }
    }
}
MOTION
Frames:    11
Frame Time:    0.008333
-2.533350    79.832634    96.999374    -0.802622    -4.589758    -175.298019    -1.431380    -11.414307    -0.250958    0.037331    4.886436    -0.110076    4.066982    7.257890    -2.115062    2.987697    -5.498769    -1.974033    1.528661    17.054487    -1.475292    -52.377991    43.807251    -35.609695    -0.695013    -4.064400    -14.861244    15.476257    -3.649093    3.729131    5.556418    18.003927    -6.898586    48.104851    43.929996    33.796650    -1.556946    -8.873244    15.897451    -15.891840    -7.982497    -4.890773    8.032578    -3.121651    0.027971    -3.478752    8.238416    0.038935    -4.005219    -8.300369    -7.543068    -0.609967    -0.070865    0.676212    -10.692273    1.127411    -5.216486    4.596193    3.164155    1.517533    3.790347    -4.801628    -14.120832    0.112472    0.349270    -0.121590    
-2.526946    79.832726    96.999886    -0.804876    -4.589396    -175.290512    -1.436897    -11.410305    -0.251911    0.040487    4.884521    -0.109906    4.063724    7.254821    -2.116101    2.986088    -5.498224    -1.975245    1.525126    17.058079    -1.476126    -52.367020    43.796406    -35.619675    -0.693460    -4.063662    -14.858692    15.469916    -3.649481    3.720690    5.550484    18.000311    -6.894272    48.100216    43.927227    33.797211    -1.555685    -8.877406    15.904126    -15.891479    -7.987993    -4.881920    8.031199    -3.128859    0.034443    -3.471949    8.247926    0.027167    -4.012166    -8.300310    -7.544305    -0.611340    -0.071732    0.677736    -10.690843    1.132338    -5.219097    4.598545    3.159326    1.517741    3.784918    -4.801250    -14.125698    0.109437    0.351694    -0.118309    
-2.520624    79.832802    97.000275    -0.806941    -4.588647    -175.283035    -1.442103    -11.406021    -0.252375    0.043494    4.882689    -0.110257    4.060404    7.251705    -2.117194    2.984783    -5.497519    -1.976489    1.521887    17.061520    -1.477076    -52.356308    43.785969    -35.629608    -0.691784    -4.063080    -14.856033    15.464211    -3.649989    3.712353    5.544612    17.996664    -6.890172    48.095573    43.924259    33.797737    -1.554214    -8.881367    15.910801    -15.891528    -7.993316    -4.873034    8.030079    -3.135592    0.040615    -3.465415    8.257278    0.015730    -4.018923    -8.300147    -7.545588    -0.612548    -0.072795    0.679076    -10.689157    1.137811    -5.221408    4.600773    3.154214    1.517349    3.779731    -4.800930    -14.130174    0.106439    0.354326    -0.115067    
-2.514473    79.832855    97.000656    -0.809297    -4.588313    -175.275543    -1.447433    -11.402059    -0.252856    0.046102    4.880823    -0.110800    4.057377    7.248423    -2.118292    2.983206    -5.496733    -1.977816    1.518825    17.065031    -1.478146    -52.345577    43.775867    -35.639809    -0.689730    -4.062665    -14.853183    15.459687    -3.650509    3.704438    5.539103    17.992933    -6.886121    48.091011    43.920490    33.797924    -1.552527    -8.885004    15.917553    -15.892188    -7.998283    -4.864108    8.028468    -3.142879    0.046181    -3.458952    8.266829    0.005321    -4.025361    -8.299905    -7.547246    -0.613633    -0.073696    0.680279    -10.687963    1.142934    -5.223545    4.603027    3.149138    1.516912    3.774918    -4.801027    -14.134954    0.103424    0.357105    -0.111807    
-2.508597    79.832855    97.000816    -0.811435    -4.587312    -175.268158    -1.452186    -11.397629    -0.253723    0.048068    4.879149    -0.111142    4.054526    7.244873    -2.119440    2.981898    -5.495474    -1.979206    1.516166    17.068331    -1.479484    -52.335293    43.766411    -35.649773    -0.687470    -4.062494    -14.850211    15.456938    -3.651104    3.697186    5.534125    17.988865    -6.882085    48.087173    43.915527    33.797024    -1.550323    -8.887838    15.924227    -15.893642    -8.002539    -4.855066    8.027194    -3.149296    0.050985    -3.453005    8.276322    -0.004105    -4.031233    -8.299827    -7.549098    -0.614484    -0.074245    0.681224    -10.686600    1.149042    -5.224920    4.605174    3.143636    1.516109    3.770489    -4.801498    -14.139912    0.100516    0.360331    -0.108662    
-2.503044    79.832771    97.000847    -0.813679    -4.586283    -175.260864    -1.456858    -11.393244    -0.254579    0.049716    4.877614    -0.111798    4.051817    7.241347    -2.120661    2.980506    -5.494473    -1.980648    1.513771    17.071323    -1.481071    -52.325600    43.757687    -35.659454    -0.684879    -4.062631    -14.847161    15.456067    -3.651805    3.690598    5.529434    17.984648    -6.878211    48.083710    43.909504    33.795506    -1.547873    -8.890035    15.930944    -15.895920    -8.006148    -4.845997    8.025705    -3.155678    0.055221    -3.447365    8.285975    -0.012696    -4.036484    -8.299911    -7.551179    -0.615151    -0.074718    0.681964    -10.685525    1.155342    -5.225931    4.607254    3.137984    1.514775    3.766410    -4.802365    -14.144676    0.097626    0.363994    -0.105538    
-2.497710    79.832634    97.000702    -0.816014    -4.585039    -175.253510    -1.461459    -11.388617    -0.255871    0.050961    4.876200    -0.112441    4.049031    7.237751    -2.121992    2.979390    -5.493761    -1.982164    1.511539    17.074112    -1.482794    -52.316250    43.749557    -35.669136    -0.681852    -4.063020    -14.843865    15.457598    -3.652566    3.684458    5.525075    17.980167    -6.874378    48.080597    43.901852    33.793137    -1.544816    -8.891370    15.937966    -15.898954    -8.008987    -4.836605    8.024122    -3.161974    0.058932    -3.442018    8.296039    -0.020784    -4.041310    -8.300303    -7.553460    -0.615714    -0.074390    0.682588    -10.684664    1.162219    -5.226426    4.609376    3.131968    1.513036    3.762539    -4.803617    -14.149590    0.094896    0.367636    -0.102587    
-2.492690    79.832420    97.000320    -0.818193    -4.583288    -175.246185    -1.465783    -11.383672    -0.257124    0.051982    4.875090    -0.113583    4.046308    7.233977    -2.123434    2.978227    -5.493151    -1.983794    1.509620    17.076374    -1.484809    -52.307953    43.742237    -35.678162    -0.678496    -4.063724    -14.840604    15.461577    -3.653441    3.678794    5.520912    17.975454    -6.870641    48.078163    43.892715    33.789982    -1.541244    -8.891780    15.944940    -15.902423    -8.010947    -4.827170    8.022683    -3.167780    0.062464    -3.436832    8.306571    -0.029076    -4.045611    -8.301221    -7.555601    -0.616168    -0.074132    0.683090    -10.683720    1.169947    -5.226460    4.611391    3.125567    1.510714    3.759016    -4.805042    -14.154161    0.092413    0.371305    -0.099902    
-2.487938    79.832123    96.999763    -0.820444    -4.581505    -175.238770    -1.470186    -11.378723    -0.258812    0.052860    4.874106    -0.114843    4.043389    7.230067    -2.125050    2.977281    -5.492909    -1.985573    1.507662    17.078352    -1.486985    -52.300240    43.735348    -35.686802    -0.674986    -4.064615    -14.837319    15.468246    -3.654374    3.673443    5.516942    17.970821    -6.867010    48.076038    43.881683    33.786282    -1.537065    -8.891121    15.952264    -15.906278    -8.011883    -4.817970    8.021118    -3.173768    0.065786    -3.431799    8.317774    -0.037602    -4.049622    -8.302595    -7.557634    -0.616620    -0.073468    0.683591    -10.682974    1.178021    -5.226329    4.613328    3.118901    1.507796    3.755882    -4.806614    -14.158195    0.090300    0.374785    -0.097617    
-2.483474    79.831787    96.998955    -0.822482    -4.579101    -175.231293    -1.474402    -11.373179    -0.260887    0.053670    4.873237    -0.116243    4.040268    7.226165    -2.126880    2.976656    -5.493149    -1.987486    1.505853    17.079935    -1.489170    -52.293392    43.729332    -35.694973    -0.671270    -4.065760    -14.834260    15.477719    -3.655348    3.668710    5.513185    17.966072    -6.863580    48.074177    43.869606    33.782143    -1.532518    -8.889632    15.959458    -15.910193    -8.012016    -4.808976    8.019817    -3.179130    0.068953    -3.426981    8.329384    -0.046793    -4.053070    -8.304428    -7.559201    -0.617204    -0.072915    0.684238    -10.682069    1.187149    -5.225877    4.615235    3.111751    1.504491    3.753119    -4.808134    -14.161779    0.088557    0.377927    -0.095733    
-2.479279    79.831406    96.997986    -0.824596    -4.576888    -175.223572    -1.478852    -11.367774    -0.262962    0.054436    4.872442    -0.118260    4.036949    7.222120    -2.129023    2.976391    -5.493670    -1.989627    1.504225    17.081200    -1.491534    -52.287552    43.723690    -35.702579    -0.667444    -4.067041    -14.831430    15.489861    -3.656302    3.664477    5.509523    17.961351    -6.860294    48.072083    43.857098    33.778103    -1.528094    -8.887805    15.966502    -15.913878    -8.011715    -4.800522    8.018311    -3.184941    0.072008    -3.422246    8.341615    -0.056381    -4.056158    -8.306582    -7.560616    -0.617977    -0.071968    0.685094    -10.681348    1.196400    -5.225714    4.617004    3.104332    1.500499    3.751013    -4.809535    -14.164258    0.087291    0.380586    -0.094363    
